<mxfile host="app.diagrams.net" modified="2023-05-10T06:11:15.971Z" agent="Mozilla/5.0 (Windows NT 10.0; Win64; x64) AppleWebKit/537.36 (KHTML, like Gecko) Chrome/112.0.0.0 Safari/537.36" version="21.2.9" etag="gJTlzy7PtTuHPvTD9Rj_" type="github">
  <diagram name="Page-1" id="sJ861mSqn82JB_ltYCCp">
    <mxGraphModel>
      <root>
        <mxCell id="0" />
        <mxCell id="1" parent="0" />
      </root>
    </mxGraphModel>
  </diagram>
</mxfile>
